<svg width="24" height="24" viewBox="0 0 24 24" fill="none" xmlns="http://www.w3.org/2000/svg">
<path d="M6.00001 12.05C6.00001 12.3334 6.02101 12.6084 6.06301 12.875C6.10501 13.1417 6.16734 13.4084 6.25001 13.675C6.33334 13.9584 6.34167 14.246 6.27501 14.538C6.20834 14.83 6.06667 15.084 5.85001 15.3C5.66667 15.4834 5.44601 15.5667 5.18801 15.55C4.93001 15.5334 4.75067 15.4084 4.65001 15.175C4.43334 14.675 4.27067 14.1627 4.16201 13.638C4.05334 13.1134 3.99934 12.584 4.00001 12.05C4.00001 9.81672 4.77501 7.91672 6.32501 6.35005C7.87501 4.78338 9.76667 4.00005 12 4.00005H12.175L11.275 3.10005C11.0917 2.91672 11 2.68338 11 2.40005C11 2.11672 11.0917 1.88338 11.275 1.70005C11.4583 1.51672 11.6917 1.42505 11.975 1.42505C12.2583 1.42505 12.4917 1.51672 12.675 1.70005L15.275 4.30005C15.475 4.50005 15.575 4.73338 15.575 5.00005C15.575 5.26672 15.475 5.50005 15.275 5.70005L12.675 8.30005C12.4917 8.48338 12.2583 8.57505 11.975 8.57505C11.6917 8.57505 11.4583 8.48338 11.275 8.30005C11.0917 8.11672 11 7.88338 11 7.60005C11 7.31672 11.0917 7.08338 11.275 6.90005L12.175 6.00005H12C10.3333 6.00005 8.91667 6.58772 7.75001 7.76305C6.58334 8.93838 6.00001 10.3674 6.00001 12.05ZM18 11.95C18 11.6667 17.9793 11.3917 17.938 11.125C17.8967 10.8584 17.834 10.5917 17.75 10.325C17.6667 10.0417 17.6583 9.75438 17.725 9.46305C17.7917 9.17172 17.9333 8.91738 18.15 8.70005C18.3333 8.51672 18.5543 8.43338 18.813 8.45005C19.0717 8.46672 19.2507 8.59172 19.35 8.82505C19.5667 9.32505 19.7293 9.83772 19.838 10.363C19.9467 10.8884 20.0007 11.4174 20 11.95C20 14.1834 19.225 16.0834 17.675 17.65C16.125 19.2167 14.2333 20 12 20H11.825L12.725 20.9C12.9083 21.0834 13 21.3167 13 21.6C13 21.8834 12.9083 22.1167 12.725 22.3C12.5417 22.4834 12.3083 22.5751 12.025 22.5751C11.7417 22.5751 11.5083 22.4834 11.325 22.3L8.72501 19.7001C8.52501 19.5001 8.42501 19.2667 8.42501 19C8.42501 18.7334 8.52501 18.5 8.72501 18.3L11.325 15.7C11.5083 15.5167 11.7417 15.425 12.025 15.425C12.3083 15.425 12.5417 15.5167 12.725 15.7C12.9083 15.8834 13 16.1167 13 16.4C13 16.6834 12.9083 16.9167 12.725 17.1L11.825 18H12C13.6667 18 15.0833 17.4127 16.25 16.238C17.4167 15.0634 18 13.634 18 11.95Z" fill="black"/>
</svg>
