<svg width="256" height="256" viewBox="0 0 256 256" fill="none" xmlns="http://www.w3.org/2000/svg">
<path d="M230.93 220C230.228 221.216 229.218 222.226 228.001 222.929C226.785 223.631 225.405 224 224 224H32.0001C30.5965 223.999 29.218 223.628 28.003 222.925C26.788 222.222 25.7792 221.212 25.078 219.996C24.3769 218.781 24.0079 217.402 24.0083 215.998C24.0087 214.594 24.3783 213.216 25.0801 212C40.3101 185.67 63.7801 166.79 91.1701 157.84C77.6218 149.775 67.0956 137.485 61.208 122.858C55.3204 108.231 54.397 92.076 58.5795 76.8736C62.7621 61.6711 71.8193 48.2619 84.3604 38.7052C96.9014 29.1485 112.233 23.9728 128 23.9728C143.767 23.9728 159.099 29.1485 171.64 38.7052C184.181 48.2619 193.238 61.6711 197.421 76.8736C201.603 92.076 200.68 108.231 194.792 122.858C188.905 137.485 178.378 149.775 164.83 157.84C192.22 166.79 215.69 185.67 230.92 212C231.624 213.215 231.995 214.594 231.997 215.999C231.999 217.403 231.631 218.783 230.93 220Z" fill="black"/>
</svg>
